<?xml version="1.0" standalone="no"?>
<!DOCTYPE svg PUBLIC "-//W3C//DTD SVG 1.1//EN" "http://www.w3.org/Graphics/SVG/1.1/DTD/svg11.dtd" >
<!--
2013-9-30: Created.
-->
<svg>
<metadata>
Created by iconfont
</metadata>
<defs>

<font id="iconfont" horiz-adv-x="1024" >
  <font-face
    font-family="iconfont"
    font-weight="500"
    font-stretch="normal"
    units-per-em="1024"
    ascent="896"
    descent="-128"
  />
    <missing-glyph />
    
    <glyph glyph-name="share" unicode="&#58930;" d="M226.133333 601.6c0 25.6 17.066667 42.666667 42.666667 42.666667H426.666667c12.8 0 21.333333-8.533333 21.333333-21.333334V597.333333c0-12.8-8.533333-21.333333-21.333333-21.333333H315.733333c-12.8 0-21.333333-12.8-21.333333-21.333333v-401.066667c0-12.8 8.533333-21.333333 21.333333-21.333333h401.066667c12.8 0 21.333333 8.533333 21.333333 21.333333v136.533333c0 12.8 8.533333 21.333333 21.333334 21.333334h25.6c12.8 0 21.333333-8.533333 21.333333-21.333334v-183.466666c0-25.6-17.066667-42.666667-42.666667-42.666667H268.8c-25.6 0-42.666667 17.066667-42.666667 42.666667V601.6zM810.666667 635.733333c12.8 12.8 12.8 34.133333 0 46.933334-12.8 12.8-34.133333 12.8-46.933334 0L810.666667 635.733333z m-290.133334-311.466666L810.666667 635.733333 759.466667 682.666667 469.333333 371.20000000000005l51.2-46.933333zM806.4 422.4c-17.066667 0-34.133333 17.066667-34.133333 34.133333V644.266667h-183.466667c-17.066667 0-34.133333 17.066667-34.133333 34.133333s17.066667 34.133333 34.133333 34.133333h196.266667c29.866667 0 55.466667-25.6 55.466666-55.466666v-196.266667c0-21.333333-17.066667-38.4-34.133333-38.4z m-21.333333 221.866667z"  horiz-adv-x="1024" />

    
    <glyph glyph-name="link" unicode="&#58929;" d="M467.2 307.2c-9.6 0-16 3.2-22.4 9.6l-76.8 76.8c-22.4 22.4-22.4 57.6 0 80L598.4 704c25.6 25.6 67.2 25.6 89.6 0l150.4-150.4c9.6-9.6 16-25.6 16-41.6s-6.4-28.8-16-41.6l-64-60.8c-12.8-12.8-32-12.8-44.8 0-12.8 12.8-12.8 32 0 44.8l57.6 57.6-144 144-224-224 73.6-73.6c12.8-12.8 12.8-32 0-44.8-9.6-3.2-16-6.4-25.6-6.4zM380.8 44.8c-16 0-32 6.4-44.8 19.2l-150.4 150.4c-22.4 22.4-22.4 57.6 0 80L256 364.8c12.8 12.8 32 12.8 44.8 0 12.8-12.8 12.8-32 0-44.8l-64-64 144-144 224 224-73.6 73.6c-12.8 12.8-12.8 32 0 44.8 12.8 12.8 32 12.8 44.8 0l76.8-76.8c22.4-22.4 22.4-57.6 0-80l-224-233.6c-12.8-12.8-28.8-19.2-48-19.2z m230.4 284.8z"  horiz-adv-x="1024" />

    
    <glyph glyph-name="file-download" unicode="&#58927;" d="M477.856 367.10400000000004V666.656a16 16 0 0 0 16 16h36.256a16 16 0 0 0 16-16v-299.52l100.416 112.928a16 16 0 0 0 22.592 1.312l27.104-24.096a16 16 0 0 0 1.312-22.56l-173.6-195.296a16 16 0 0 0-23.904 0l-173.6 195.296a16 16 0 0 0 1.344 22.56l27.104 24.096a16 16 0 0 0 22.592-1.312l100.384-112.96zM221.888 240a16 16 0 0 0 16 16h36.256a16 16 0 0 0 16-16v-104.544a16 16 0 0 1 16-16h411.744a16 16 0 0 1 16 16V240a16 16 0 0 0 16 16h36.256a16 16 0 0 0 16-16v-156.8a32 32 0 0 0-32-32H253.888a32 32 0 0 0-32 32v156.8z"  horiz-adv-x="1024" />

    
    <glyph glyph-name="topics" unicode="&#58928;" d="M870.4 512H217.6c-15.36 0-25.6-10.24-25.6-25.6v-396.8c0-15.36 10.24-25.6 25.6-25.6H870.4c15.36 0 25.6 10.24 25.6 25.6V486.4c0 15.36-10.24 25.6-25.6 25.6z m-43.52-378.88H261.12V442.88h568.32v-309.76zM409.6 665.6h256c15.36 0 25.6 10.24 25.6 25.6s-10.24 25.6-25.6 25.6H409.6c-15.36 0-25.6-10.24-25.6-25.6s10.24-25.6 25.6-25.6zM307.2 563.2h460.8c15.36 0 25.6 10.24 25.6 25.6s-10.24 25.6-25.6 25.6H307.2c-15.36 0-25.6-10.24-25.6-25.6s10.24-25.6 25.6-25.6z"  horiz-adv-x="1024" />

    
    <glyph glyph-name="taobao" unicode="&#58926;" d="M853.3248 576v-384c-1.4336-9.6-2.6624-19.2256-4.3776-28.8-10.0608-57.216-57.2672-105.3184-114.2016-116.2496-9.344-1.792-18.688-2.8672-28.0832-4.2752H318.6688c-10.0352 1.4592-20.096 2.6624-30.0544 4.4288-55.0656 9.728-104.0128 58.88-113.5616 114.176-1.7152 9.728-2.944 19.584-4.3776 29.3888V577.3312c0.9728 6.0672 2.1504 12.1088 2.8928 18.2016 7.7568 66.1504 60.8768 114.688 119.0656 125.44 8.704 1.5872 17.3568 2.9184 26.0352 4.352H704c6.2976-0.9728 12.6208-1.9968 18.944-2.8928 63.616-9.0368 113.3312-56.1152 126.208-119.6288 1.792-8.8576 2.8416-17.8688 4.1728-26.8032z m-337.92-81.0752l-0.0768 1.3312c8.3712 2.688 16.7424 5.3504 25.1136 8.0896 32.8448 10.6752 65.8944 18.944 101.0688 15.36 31.5136-3.2512 50.9952-21.6064 51.2-52.096 0.4608-64.6656 0.4608-129.3312 0-193.9968-0.2304-29.824-21.76-50.9952-51.5328-50.2272-15.104 0.3584-30.1312 4.2496-45.1072 7.0144-4.224 0.7936-6.2208 0-7.168-4.096-1.3568-5.632-2.9952-11.136-4.4032-16.7168-3.8912-15.4624-3.8912-15.4368 11.7248-18.688 30.8992-6.4512 61.7216-8.32 92.928-0.8192 38.3488 9.2672 63.0016 31.7952 70.0672 71.04 3.9168 20.9152 6.3744 42.0608 7.3728 63.3088 1.9712 49.92 1.7408 99.84-6.1696 149.4528-3.1488 19.712-9.8816 37.5552-26.4704 49.7408a139.776 139.776 0 0 1-28.0064 16.4352c-33.1008 14.0032-68.2496 16.4864-103.296 12.7744-28.9792-3.072-57.6-9.728-86.2976-15.1808-9.6768-1.8176-19.1488-4.7872-29.5936-7.4496 4.608 8.704 8.6016 16.256 12.544 23.8336 2.6624 5.0432 0.8448 7.5008-4.5312 8.9088a1556.608 1556.608 0 0 0-50.688 13.824c-5.5296 1.6384-8.1152 1.0752-10.2144-4.8896-10.24-29.696-22.656-58.368-41.3184-83.8912-8.448-11.5712-17.5872-22.656-26.6752-34.304-0.1792 0.3072 0-0.4608 0.512-0.768 13.0304-7.552 26.0352-15.2064 39.2448-22.4256 1.3312-0.7424 4.8128 0.3584 6.144 1.7152 8.6528 8.9088 17.8944 17.5104 25.2416 27.4432 8.704 11.776 22.1952 13.0048 33.7664 18.688-12.288-24.064-26.2912-46.6944-44.3392-66.56-3.2-3.4816-3.9168-5.76 0.1024-9.088 6.3232-5.248 12.3904-10.8288 18.3296-16.512 3.2256-3.0976 5.632-3.2256 8.8832 0.0768 8.2432 8.3968 17.7152 15.7952 24.9344 24.96 7.2448 9.1648 15.6416 11.0592 26.1888 10.1632 4.2496-0.3584 5.9392-1.6896 5.8112-5.9392a324.864 324.864 0 0 1 0-24.6784c0.3072-5.9392-1.408-8.0128-7.7568-8.0128-24.8832 0.384-49.7664 0-74.6496 0.256-5.12 0-7.3472-1.6128-7.0912-6.8608 0.3584-5.7856 0.3584-11.5712 0-17.3312-0.512-6.528 1.5104-8.9088 8.4992-8.8064 24.8832 0.4096 49.7664 0.1536 74.6752 0.1536 3.2 0 6.3488 0.384 6.3488-4.4544-0.1024-21.76 0-43.52-0.256-65.3312a5.5296 5.5296 0 0 0-3.0464-4.1472c-12.5696-3.584-30.464 6.656-33.024 19.2256a62.6688 62.6688 0 0 0-0.5888 14.592c0.256 7.1936 0.9472 14.3872 1.5104 22.3232-20.864 0-40.832 0.1024-60.7744-0.2304-1.4592 0-3.6864-2.816-4.1984-4.7104-4.0192-14.3872-3.6864-29.0304-1.2032-43.5456 4.4544-26.112 22.2976-49.8432 52.1216-51.1232 17.664-0.768 35.4816-0.6912 53.1456 0.1536a213.504 213.504 0 0 1 80.9216 19.5072c11.392 5.3248 22.272 11.6736 33.6896 17.7408l1.3312-4.7616c2.0992-7.4496 4.1472-14.9248 6.272-22.3488 1.024-3.584 3.1232-4.352 6.5792-2.8672 14.0032 6.144 28.0832 12.1856 42.1632 18.1248 3.1232 1.3312 3.84 3.072 2.56 6.2208-10.2912 25.2672-20.5312 50.5344-30.7456 75.8272-1.3312 3.4048-3.328 4.096-6.7584 2.9696-10.6496-3.5072-21.504-6.784-32.3072-10.1376-3.9936-1.2288-4.9664-3.6608-3.8144-7.6288 1.792-5.9392 3.328-12.0064 4.6336-17.9968 0.4352-1.9456 0.5632-5.2224-0.5376-6.0416-9.5488-7.168-19.7632-13.1584-32.3584-16-0.2304 3.2256-0.5376 5.5808-0.5376 8.0128 0 16.4352 0.4608 32.8704 0.0768 49.3312-0.1536 6.3488 2.048 7.808 8.0128 7.7312 23.7568-0.3072 47.5392 0 71.3216-0.3072 6.5536-0.0768 9.472 1.5872 8.8064 8.5504a83.1232 83.1232 0 0 0 0 16c0.6912 6.9888-2.176 8.576-8.7808 8.448-24.192-0.3584-48.4352 0-72.6272-0.2304-4.864 0-6.8096 1.152-6.528 6.2976 0.384 7.7568 0.0768 15.5648 0.1024 23.3472 0 8.704 0 8.7296 8.7552 8.704 23.7824 0 47.5392 0.1024 71.3216-0.1536 5.76 0 8.1664 1.792 7.7312 7.68-0.3584 5.0944-0.0768 10.24-0.0768 15.3344 0 10.368 0 10.3936-10.1632 10.3936h-135.9872c-2.5344 0-5.0432 0.256-8.0128 0.4096l21.3504 32.7168-25.3952 7.168z m-191.1808-300.3392c13.056 27.4688 25.472 53.1968 37.5552 79.104 12.2112 26.1376 22.9888 52.8128 28.5184 81.3312 4.736 24.2944 0.7168 45.8752-18.8416 62.848-17.92 15.5904-35.8144 31.232-53.76 46.7712-2.3552 2.0224-5.1456 3.4816-7.68 5.3248-3.7376 2.6624-6.1952 1.7664-8.5248-2.1504-6.4512-10.6496-13.2352-21.0432-19.8144-31.5648-1.7408-2.7648-3.328-5.5808-5.2224-8.7808 16.3328-10.1376 32.0768-19.6608 47.5392-29.6448 6.7584-4.224 13.0816-9.1136 18.9184-14.592 9.7792-9.4464 13.312-21.4528 7.6288-34.048-4.5568-10.2144-9.856-20.7616-17.3312-28.8768-23.6288-25.6512-48.384-50.0992-72.832-74.9824-1.9456-1.9712-4.5824-3.2512-7.7312-5.4528l71.5776-45.312z m20.0704 294.0928l0.5632-1.7152c8.2688 2.7392 17.2032 4.3264 24.7296 8.448a38.8608 38.8608 0 0 1 6.656 64.1024c-15.1296 13.056-33.0752 16.1536-51.6352 8.6016-29.6448-12.0064-36.5824-46.6688-13.7984-66.7648 9.1136-8.3712 21.0944-12.928 33.4592-12.672z"  horiz-adv-x="1024" />

    
    <glyph glyph-name="app-store" unicode="&#58925;" d="M755.2 455.68L711.68 727.04c-2.56 10.24-7.68 20.48-17.92 28.16s-20.48 10.24-30.72 7.68L212.48 691.2c-10.24-2.56-20.48-10.24-28.16-17.92s-7.68-20.48-7.68-33.28l92.16-581.12c2.56-20.48 20.48-35.84 40.96-35.84h7.68l266.24 40.96c28.16-15.36 61.44-23.04 97.28-23.04 117.76 0 212.48 94.72 212.48 212.48 2.56 94.72-56.32 174.08-138.24 202.24zM248.32 627.2L647.68 691.2l35.84-220.16c-117.76 0-212.48-94.72-212.48-212.48 0-48.64 17.92-94.72 46.08-130.56L332.8 94.72000000000003 248.32 627.2z m535.04-325.12L737.28 256c-2.56-2.56-2.56-7.68 0-10.24l35.84-56.32c5.12-7.68-2.56-15.36-10.24-12.8l-58.88 30.72c-2.56 2.56-7.68 0-10.24-2.56l-40.96-51.2c-5.12-7.68-15.36-2.56-15.36 7.68l10.24 66.56c0 5.12-2.56 7.68-5.12 10.24l-61.44 23.04c-7.68 2.56-7.68 15.36 2.56 15.36l66.56 10.24c5.12 0 7.68 5.12 7.68 7.68l2.56 66.56c0 7.68 12.8 10.24 15.36 2.56l30.72-58.88c2.56-2.56 5.12-5.12 10.24-5.12l64 17.92c2.56 0 10.24-10.24 2.56-15.36z"  horiz-adv-x="1024" />

    
    <glyph glyph-name="hot-fill" unicode="&#58923;" d="M682.666667 580.266667C601.6 682.666667 529.066667 725.333333 524.8 725.333333c-8.533333 4.266667-17.066667 4.266667-21.333333 0-8.533333-4.266667-8.533333-12.8-8.533334-21.333333 46.933333-153.6 17.066667-247.466667-25.6-281.6-21.333333-17.066667-46.933333-21.333333-68.266666-8.533333-42.666667 21.333333-21.333333 89.6-21.333334 93.866666 4.266667 8.533333 0 17.066667-8.533333 21.333334-8.533333 4.266667-17.066667 4.266667-25.6 0-51.2-38.4-106.666667-128-93.866667-247.466667 8.533333-140.8 119.466667-238.933333 260.266667-238.933333 145.066667 0 260.266667 110.933333 264.533333 256 4.266667 98.133333-29.866667 200.533333-93.866666 281.6z"  horiz-adv-x="1024" />

    
    <glyph glyph-name="feature-fill" unicode="&#58922;" d="M857.6 533.333333l-136.533333 157.866667c-12.8 17.066667-34.133333 25.6-59.733334 25.6h-298.666666c-21.333333 0-42.666667-8.533333-59.733334-25.6L166.4 533.333333c-25.6-25.6-25.6-68.266667-4.266667-98.133333l285.866667-371.2c12.8-17.066667 38.4-29.866667 59.733333-29.866667s46.933333 12.8 59.733334 29.866667l285.866666 371.2c29.866667 25.6 25.6 68.266667 4.266667 98.133333z"  horiz-adv-x="1024" />

    
    <glyph glyph-name="feature" unicode="&#58920;" d="M512 34.13333299999999c-25.6 0-46.933333 12.8-59.733333 29.866667l-285.866667 371.2c-21.333333 29.866667-21.333333 68.266667 4.266667 98.133333l136.533333 157.866667c12.8 17.066667 34.133333 25.6 59.733333 25.6h302.933334c21.333333 0 42.666667-8.533333 59.733333-25.6l136.533333-157.866667c25.6-25.6 25.6-68.266667 4.266667-98.133333l-285.866667-371.2c-25.6-17.066667-46.933333-29.866667-72.533333-29.866667zM217.6 486.4c-4.266667-4.266667-4.266667-8.533333 0-12.8l285.866667-371.2c4.266667-4.266667 8.533333-4.266667 12.8 0l285.866666 371.2c4.266667 4.266667 4.266667 8.533333 0 12.8l-136.533333 157.866667s-4.266667 4.266667-8.533333 4.266666H362.666667c-4.266667 0-4.266667 0-8.533334-4.266666L217.6 486.4z"  horiz-adv-x="1024" />

    
    <glyph glyph-name="close-round" unicode="&#58921;" d="M553.87655901 384.00740375l201.17400587 201.17400636a29.61552157 29.61552157 0 0 1-41.88480895 41.88480843L511.99175008 425.89221267 310.81774371 627.06621854a29.61552157 29.61552157 0 0 1-41.88480842-41.88480843L470.10694113 384.00740375 268.93293528 182.83339788a29.61552157 29.61552157 0 0 1 41.88480843-41.88480894L511.99175008 342.1225948l201.17400586-201.17400586a29.61552157 29.61552157 0 0 1 41.88480893 41.88480894z"  horiz-adv-x="1024" />

    
    <glyph glyph-name="menu" unicode="&#58919;" d="M288 608m32 0l384 0q32 0 32-32l0 0q0-32-32-32l-384 0q-32 0-32 32l0 0q0 32 32 32ZM288 416m32 0l384 0q32 0 32-32l0 0q0-32-32-32l-384 0q-32 0-32 32l0 0q0 32 32 32ZM288 224m32 0l384 0q32 0 32-32l0 0q0-32-32-32l-384 0q-32 0-32 32l0 0q0 32 32 32Z"  horiz-adv-x="1024" />

    
    <glyph glyph-name="notice" unicode="&#58918;" d="M768 224h-32v179.2c0 38.4 0 112-25.6 176-12.8 32-32 64-64 89.6-32 22.4-73.6 38.4-124.8 38.4s-92.8-12.8-124.8-35.2c-32-22.4-57.6-51.2-70.4-83.2-32-60.8-35.2-134.4-35.2-185.6V224H256c-19.2 0-32-12.8-32-32s12.8-32 32-32h512c19.2 0 32 12.8 32 32s-12.8 32-32 32z m-416 0v179.2c0 48 3.2 108.8 28.8 156.8 12.8 22.4 28.8 44.8 48 57.6 22.4 12.8 51.2 22.4 92.8 22.4 41.6 0 67.2-9.6 86.4-25.6 19.2-16 35.2-35.2 44.8-60.8 19.2-51.2 19.2-112 19.2-150.4V224H352zM512 64c35.2 0 64 28.8 64 64h-128c0-35.2 28.8-64 64-64z"  horiz-adv-x="1024" />

    
    <glyph glyph-name="search" unicode="&#58910;" d="M800 150.39999999999998l-124.8 124.8c41.6 44.8 67.2 105.6 67.2 172.8 0 140.8-115.2 256-256 256s-256-115.2-256-256 115.2-256 256-256c51.2 0 99.2 16 137.6 41.6l128-128c6.4-6.4 16-9.6 22.4-9.6s16 3.2 22.4 9.6c12.8 12.8 12.8 32 3.2 44.8zM294.4 448c0 105.6 86.4 192 192 192s192-86.4 192-192-86.4-192-192-192-192 86.4-192 192z"  horiz-adv-x="1056" />

    
    <glyph glyph-name="comment" unicode="&#58917;" d="M387.89396049 79.50852572999997a48.39045238 48.39045238 0 0 0-48.32686469 48.32686468v76.94145515L262.30770088 207.63830479A72.61747244 72.61747244 0 0 0 189.81740383 280.19218952999995V658.73143223A72.55388474 72.55388474 0 0 0 262.30770088 731.22172864h499.29281547a72.61747244 72.61747244 0 0 0 72.49029704-72.49029641v-378.47565499a72.61747244 72.61747244 0 0 0-72.49029704-72.49029641H550.23407246a35.92720844 35.92720844 0 0 1-25.68954418-10.74636842l-102.37664656-103.1397028a48.00892428 48.00892428 0 0 0-34.27392123-14.37088387zM262.30770088 670.17726855a11.44583631 11.44583631 0 0 1-11.44583631-11.44583632v-378.475655a11.44583631 11.44583631 0 0 1 11.44583631-11.44583631h74.20717196A64.1602714 64.1602714 0 0 0 400.5479682 204.71325786v-45.91052126l80.62955829 81.20185014a96.52655271 96.52655271 0 0 0 69.05654597 28.80535419h211.36644389a11.44583631 11.44583631 0 0 1 11.44583629 11.44583631V658.73143223a11.44583631 11.44583631 0 0 1-11.44583629 11.44583632z"  horiz-adv-x="1024" />

    
    <glyph glyph-name="special" unicode="&#58916;" d="M896 473.6c8.533333 12.8 4.266667 29.866667-12.8 34.133333l-221.866667 55.466667c-4.266667 0-8.533333 4.266667-12.8 8.533333L529.066667 768c-8.533333 12.8-29.866667 12.8-34.133334 0L371.2 571.733333c0-4.266667-4.266667-8.533333-12.8-8.533333L136.533333 507.733333c-12.8-4.266667-21.333333-25.6-8.533333-34.133333L273.066667 298.66666699999996c4.266667-4.266667 4.266667-8.533333 4.266666-17.066667l-17.066666-230.4c0-17.066667 12.8-25.6 29.866666-21.333333l213.333334 81.066666h17.066666l213.333334-81.066666c12.8-4.266667 29.866667 4.266667 29.866666 21.333333l-17.066666 230.4c0 4.266667 0 12.8 4.266666 17.066667L896 473.6zM699.733333 341.33333300000004c-17.066667-17.066667-21.333333-42.666667-21.333333-64l12.8-153.6-140.8 55.466667c-21.333333 8.533333-46.933333 8.533333-68.266667 0l-145.066666-55.466667 12.8 153.6c0 21.333333-8.533333 46.933333-25.6 64l-98.133334 119.466667 149.333334 38.4c21.333333 4.266667 42.666667 21.333333 55.466666 38.4l81.066667 128 81.066667-132.266667c12.8-21.333333 29.866667-34.133333 55.466666-38.4l149.333334-38.4-98.133334-115.2zM529.066667 469.333333c-8.533333 8.533333-21.333333 8.533333-29.866667 0l-85.333333-85.333333c-8.533333-8.533333-8.533333-21.333333 0-29.866667l85.333333-85.333333c8.533333-8.533333 21.333333-8.533333 29.866667 0l85.333333 85.333333c8.533333 8.533333 8.533333 21.333333 0 29.866667l-85.333333 85.333333z"  horiz-adv-x="1024" />

    
    <glyph glyph-name="series" unicode="&#58915;" d="M405.333333 524.8l238.933334-25.6c4.266667 0 8.533333 4.266667 8.533333 8.533333l4.266667 25.6c0 4.266667-4.266667 8.533333-8.533334 8.533334l-238.933333 25.6c-4.266667 0-8.533333-4.266667-8.533333-8.533334v-25.6c-4.266667-4.266667 0-8.533333 4.266666-8.533333zM396.8 422.4l153.6-17.066667c4.266667 0 8.533333 4.266667 8.533333 8.533334l4.266667 25.6c0 4.266667-4.266667 8.533333-8.533333 8.533333l-153.6 17.066667c-4.266667 0-8.533333-4.266667-8.533334-8.533334l-4.266666-25.6c0-4.266667 4.266667-8.533333 8.533333-8.533333zM904.533333 499.2c-17.066667 68.266667-72.533333 93.866667-132.266666 102.4l8.533333 59.733333c0 17.066667-12.8 34.133333-29.866667 38.4l-396.8 42.666667c-17.066667 0-34.133333-12.8-38.4-29.866667l-25.6-187.733333c-115.2-68.266667-174.933333-153.6-157.866666-226.133333 12.8-46.933333 55.466667-85.333333 123.733333-102.4l-8.533333-89.6c0-17.066667 12.8-34.133333 29.866666-38.4l396.8-42.666667c17.066667 0 34.133333 12.8 38.4 29.866667l21.333334 213.333333c123.733333 64 192 153.6 170.666666 230.4zM375.466667 674.133333l328.533333-34.133333-34.133333-328.533333c-34.133333-17.066667-72.533333-29.866667-119.466667-42.666667-81.066667-21.333333-157.866667-25.6-221.866667-21.333333l46.933334 426.666666z m-174.933334-358.4c-8.533333 34.133333 21.333333 81.066667 81.066667 123.733334l-17.066667-174.933334c-34.133333 8.533333-59.733333 29.866667-64 51.2z m448-221.866666L320 128l4.266667 51.2c17.066667 0 38.4-4.266667 59.733333-4.266667 59.733333 0 123.733333 8.533333 187.733333 25.6 34.133333 8.533333 64 17.066667 93.866667 29.866667l-17.066667-136.533333z m98.133334 256l21.333333 183.466666c55.466667-8.533333 68.266667-29.866667 72.533333-51.2 4.266667-34.133333-29.866667-85.333333-93.866666-132.266666z"  horiz-adv-x="1024" />

    
    <glyph glyph-name="hot" unicode="&#58914;" d="M682.666667 580.266667C601.6 682.666667 529.066667 725.333333 524.8 725.333333c-8.533333 4.266667-17.066667 4.266667-21.333333 0-8.533333-4.266667-8.533333-12.8-8.533334-21.333333 46.933333-153.6 17.066667-247.466667-25.6-281.6-21.333333-17.066667-46.933333-21.333333-68.266666-8.533333-42.666667 21.333333-21.333333 89.6-21.333334 93.866666 4.266667 8.533333 0 17.066667-8.533333 21.333334-8.533333 4.266667-17.066667 4.266667-25.6 0-51.2-38.4-106.666667-128-93.866667-247.466667 8.533333-140.8 119.466667-238.933333 260.266667-238.933333 145.066667 0 260.266667 110.933333 264.533333 256 4.266667 98.133333-29.866667 200.533333-93.866666 281.6z m-170.666667-469.333334c-106.666667 0-187.733333 72.533333-196.266667 170.666667-4.266667 38.4 0 72.533333 12.8 102.4 8.533333-12.8 21.333333-25.6 38.4-34.133333 42.666667-25.6 98.133333-21.333333 145.066667 17.066666 25.6 17.066667 85.333333 81.066667 76.8 221.866667 12.8-12.8 29.866667-29.866667 42.666667-51.2 55.466667-68.266667 81.066667-153.6 81.066666-234.666667-8.533333-110.933333-89.6-192-200.533333-192z"  horiz-adv-x="1024" />

    
    <glyph glyph-name="layout-card" unicode="&#58913;" d="M576 704m42.666667 0l170.666666 0q42.666667 0 42.666667-42.666667l0-170.666666q0-42.666667-42.666667-42.666667l-170.666666 0q-42.666667 0-42.666667 42.666667l0 170.666666q0 42.666667 42.666667 42.666667ZM192 704m42.666667 0l170.666666 0q42.666667 0 42.666667-42.666667l0-170.666666q0-42.666667-42.666667-42.666667l-170.666666 0q-42.666667 0-42.666667 42.666667l0 170.666666q0 42.666667 42.666667 42.666667ZM192 320m42.666667 0l170.666666 0q42.666667 0 42.666667-42.666667l0-170.666666q0-42.666667-42.666667-42.666667l-170.666666 0q-42.666667 0-42.666667 42.666667l0 170.666666q0 42.666667 42.666667 42.666667ZM576 320m42.666667 0l170.666666 0q42.666667 0 42.666667-42.666667l0-170.666666q0-42.666667-42.666667-42.666667l-170.666666 0q-42.666667 0-42.666667 42.666667l0 170.666666q0 42.666667 42.666667 42.666667Z"  horiz-adv-x="1024" />

    
    <glyph glyph-name="layout-all" unicode="&#58912;" d="M170.666667 682.666667m21.333333 0l384 0q21.333333 0 21.333333-21.333334l0-42.666666q0-21.333333-21.333333-21.333334l-384 0q-21.333333 0-21.333333 21.333334l0 42.666666q0 21.333333 21.333333 21.333334ZM725.333333 704m21.333334 0l85.333333 0q21.333333 0 21.333333-21.333333l0-85.333334q0-21.333333-21.333333-21.333333l-85.333333 0q-21.333333 0-21.333334 21.333333l0 85.333334q0 21.333333 21.333334 21.333333ZM725.333333 448m21.333334 0l85.333333 0q21.333333 0 21.333333-21.333333l0-85.333334q0-21.333333-21.333333-21.333333l-85.333333 0q-21.333333 0-21.333334 21.333333l0 85.333334q0 21.333333 21.333334 21.333333ZM725.333333 192m21.333334 0l85.333333 0q21.333333 0 21.333333-21.333333l0-85.333334q0-21.333333-21.333333-21.333333l-85.333333 0q-21.333333 0-21.333334 21.333333l0 85.333334q0 21.333333 21.333334 21.333333ZM170.666667 426.666667m21.333333 0l384 0q21.333333 0 21.333333-21.333334l0-42.666666q0-21.333333-21.333333-21.333334l-384 0q-21.333333 0-21.333333 21.333334l0 42.666666q0 21.333333 21.333333 21.333334ZM170.666667 170.66666699999996m21.333333 0l384 0q21.333333 0 21.333333-21.333334l0-42.666666q0-21.333333-21.333333-21.333334l-384 0q-21.333333 0-21.333333 21.333334l0 42.666666q0 21.333333 21.333333 21.333334Z"  horiz-adv-x="1024" />

    
    <glyph glyph-name="arrow-right" unicode="&#58911;" d="M598.016 368.89599999999996a21.312 21.312 0 0 1 0 30.144L365.888 631.104a8.512 8.512 0 0 0 0 12.096l36.224 36.224a8.512 8.512 0 0 0 12.096 0l280.32-280.32c8.32-8.384 8.32-21.888 0-30.208l-280.32-280.32a8.512 8.512 0 0 0-12.096 0l-36.224 36.16a8.512 8.512 0 0 0 0 12.096l232.128 232.064z"  horiz-adv-x="1024" />

    
    <glyph glyph-name="arrow-left" unicode="&#58924;" d="M425.984 399.104a21.312 21.312 0 0 1 0-30.144L658.112 136.89599999999996a8.512 8.512 0 0 0 0-12.096l-36.22399999-36.224a8.512 8.512 0 0 0-12.09600001 0l-280.32 280.32c-8.32 8.384-8.32 21.888 0 30.208l280.32 280.32a8.512 8.512 0 0 0 12.09600001 0l36.22399999-36.16a8.512 8.512 0 0 0 0-12.096l-232.128-232.064z"  horiz-adv-x="1024" />

    
    <glyph glyph-name="layout" unicode="&#58909;" d="M170.6496 725.3504m51.2 0l580.2496 0q51.2 0 51.2-51.2l0-153.6q0-51.2-51.2-51.2l-580.2496 0q-51.2 0-51.2 51.2l0 153.6q0 51.2 51.2 51.2ZM170.6496 298.64959999999996m51.2 0l153.6 0q51.2 0 51.2-51.2l0-153.6q0-51.2-51.2-51.2l-153.6 0q-51.2 0-51.2 51.2l0 153.6q0 51.2 51.2 51.2ZM597.3504 298.64959999999996m51.2 0l153.6 0q51.2 0 51.2-51.2l0-153.6q0-51.2-51.2-51.2l-153.6 0q-51.2 0-51.2 51.2l0 153.6q0 51.2 51.2 51.2Z"  horiz-adv-x="1024" />

    
    <glyph glyph-name="hook" unicode="&#58908;" d="M820.394667 631.722667a21.333333 21.333333 0 0 0 2.432-30.08l-343.168-403.712a42.666667 42.666667 0 0 0-61.184-3.925334L206.08 387.072a21.333333 21.333333 0 0 0-1.450667 30.122667l17.237334 18.944a21.333333 21.333333 0 0 0 30.122666 1.450666l176.469334-160.426666a21.333333 21.333333 0 0 1 30.592 1.962666l311.722666 366.72a21.333333 21.333333 0 0 0 30.037334 2.432l19.541333-16.554666z"  horiz-adv-x="1024" />

    
    <glyph glyph-name="arrow-up" unicode="&#58907;" d="M534.72 462.464a32 32 0 0 1-45.248 0l-221.504-221.568a12.8 12.8 0 0 0-18.112 0l-30.208 30.208a12.8 12.8 0 0 0 0 18.112l269.824 269.76a32 32 0 0 0 45.248 0L804.48 289.28a12.8 12.8 0 0 0 0-18.112l-30.08-30.208a12.8 12.8 0 0 0-18.176 0L534.72 462.464z"  horiz-adv-x="1024" />

    
    <glyph glyph-name="upload" unicode="&#58906;" d="M546.133333 541.525333v-294.229333a21.333333 21.333333 0 0 0-21.333333-21.333333h-25.6a21.333333 21.333333 0 0 0-21.333333 21.333333V541.525333l-96.853334-108.970666a21.333333 21.333333 0 0 0-30.122666-1.749334l-19.114667 16.981334a21.333333 21.333333 0 0 0-1.792 30.122666l166.058667 186.837334a21.333333 21.333333 0 0 0 31.872 0L694.016 477.866667a21.333333 21.333333 0 0 0-1.792-30.122667l-19.157333-16.981333a21.333333 21.333333 0 0 0-30.08 1.749333L546.133333 541.525333zM221.866667 234.66666699999996a21.333333 21.333333 0 0 0 21.333333 21.333333h25.6a21.333333 21.333333 0 0 0 21.333333-21.333333v-93.866667a21.333333 21.333333 0 0 1 21.333334-21.333333h401.066666a21.333333 21.333333 0 0 1 21.333334 21.333333v93.866667a21.333333 21.333333 0 0 0 21.333333 21.333333h25.6a21.333333 21.333333 0 0 0 21.333333-21.333333v-140.8a42.666667 42.666667 0 0 0-42.666666-42.666667H264.533333a42.666667 42.666667 0 0 0-42.666666 42.666667v140.8z"  horiz-adv-x="1024" />

    
    <glyph glyph-name="arrow-down" unicode="&#58905;" d="M489.408 305.6a32 32 0 0 1 45.248 0l221.504 221.504a12.8 12.8 0 0 0 18.112 0l30.144-30.144a12.8 12.8 0 0 0 0-18.112l-269.76-269.76a32 32 0 0 0-45.248 0L219.52 478.848a12.8 12.8 0 0 0 0 18.112l30.208 30.144a12.8 12.8 0 0 0 18.112 0l221.44-221.504z"  horiz-adv-x="1024" />

    
    <glyph glyph-name="plus" unicode="&#58904;" d="M853.3504 371.20000000000005c0-11.776-9.5744-21.3504-21.3504-21.3504H192a21.3504 21.3504 0 0 0-21.3504 21.3504v25.6c0 11.776 9.5744 21.3504 21.3504 21.3504h640c11.776 0 21.3504-9.5744 21.3504-21.3504v-25.6zM499.2 42.649599999999964a21.3504 21.3504 0 0 0-21.2992 21.3504V704c0 11.776 9.5232 21.3504 21.2992 21.3504h25.6c11.776 0 21.3504-9.5744 21.3504-21.3504v-640c0-11.776-9.5744-21.3504-21.3504-21.3504h-25.6z"  horiz-adv-x="1024" />

    
    <glyph glyph-name="layout-list" unicode="&#58903;" d="M170.666667 682.666667m21.333333 0l640 0q21.333333 0 21.333333-21.333334l0-42.666666q0-21.333333-21.333333-21.333334l-640 0q-21.333333 0-21.333333 21.333334l0 42.666666q0 21.333333 21.333333 21.333334ZM170.666667 426.666667m21.333333 0l469.333333 0q21.333333 0 21.333334-21.333334l0-42.666666q0-21.333333-21.333334-21.333334l-469.333333 0q-21.333333 0-21.333333 21.333334l0 42.666666q0 21.333333 21.333333 21.333334ZM170.666667 170.66666699999996m21.333333 0l469.333333 0q21.333333 0 21.333334-21.333334l0-42.666666q0-21.333333-21.333334-21.333334l-469.333333 0q-21.333333 0-21.333333 21.333334l0 42.666666q0 21.333333 21.333333 21.333334Z"  horiz-adv-x="1024" />

    
    <glyph glyph-name="appstore" unicode="&#58902;" d="M512.725333 642.986667c3.968 6.826667 6.954667 11.733333 9.941334 16.64 13.866667 22.570667 39.68 29.44 62.506666 16.682666 20.821333-11.776 27.776-38.272 14.890667-60.8-33.749333-57.898667-67.498667-115.754667-102.229333-174.592-22.784-38.272-45.653333-77.482667-67.456-115.754666-2.005333-3.925333-3.968-7.850667-7.936-13.738667 4.949333 0 8.96-0.981333 12.885333-0.981333h113.109333c44.672 0 70.485333-33.322667 60.544-77.482667-1.962667-6.826667-4.949333-9.813333-12.885333-9.813333H221.013333c-18.858667 0-33.706667 4.906667-43.648 21.589333a42.666667 42.666667 0 0 0 36.693334 65.706667c30.762667 0.981333 62.506667 0 93.269333 0 7.936 0 12.928 1.962667 17.877333 9.813333 43.648 75.52 87.296 150.058667 130.986667 225.621333 3.968 6.826667 3.968 11.733333-1.024 18.602667-9.898667 15.701333-20.821333 32.384-29.738667 48.085333-13.909333 24.490667-7.936 50.986667 13.866667 62.762667 22.826667 12.757333 47.658667 5.888 62.506667-18.645333 4.992-2.944 6.954667-6.826667 10.922666-13.738667zM756.821333 224.17066699999998c14.848-26.453333 28.757333-49.066667 41.642667-72.576 13.909333-25.514667 2.005333-54.912-24.789333-63.744-19.84-6.869333-40.704 1.962667-52.608 21.546666-24.789333 41.216-48.64 83.370667-73.386667 124.586667-32.768 56.874667-66.517333 113.792-99.242667 170.666667a88.021333 88.021333 0 0 0 19.84 110.848c10.922667 9.813333 13.866667 8.832 21.845334-3.925334 36.693333-63.786667 73.386667-126.549333 110.08-190.293333 4.992-7.850667 9.941333-9.813333 17.92-9.813333h88.32c27.733333 0 48.597333-18.645333 47.616-44.117334 0-24.533333-20.864-43.178667-47.658667-43.178666h-49.578667zM290.474667 213.37599999999998c22.826667 0 37.717333-5.888 50.602666-18.645333 5.973333-4.906667 7.936-9.813333 2.986667-17.664l-41.685333-70.613334c-12.885333-20.608-38.698667-26.453333-59.52-14.72-20.864 11.776-28.8 35.328-17.92 56.917334 8.96 17.621333 18.901333 34.304 28.8 50.005333a15.36 15.36 0 0 0 10.922666 7.850667c10.922667 3.925333 20.864 5.888 25.813334 6.869333z"  horiz-adv-x="1024" />

    
    <glyph glyph-name="web" unicode="&#58901;" d="M512 731.61428833C318.88095123 731.61428833 164.38571167 577.1190487700001 164.38571167 384s154.49523956-347.61428833 347.61428833-347.61428833 347.61428833 154.49523956 347.61428833 347.61428833-154.49523956 347.61428833-347.61428833 347.61428833zM226.18380722 384c0 81.11000083 34.76142883 158.35761993 92.69714401 208.568573v-185.39428733c0-11.58714316 3.86238105-23.17428567 15.44952355-34.76142883l57.93571449-57.9357145V190.88095123000005c0-27.03666671 23.17428567-50.21095307 50.21095307-50.21095305v-34.76142883c-127.45857217 34.76142883-216.29333511 146.77047744-216.29333513 278.09143065z m359.2014315-278.09143067v34.76142882c27.03666671 0 50.21095307 23.17428567 50.21095238 50.21095308v73.38523804c0 42.48619095-30.89904778 73.38523872-73.38523803 73.38523873H508.13761895L415.44047563 426.48619095v30.89904777H512c27.03666671 0 50.21095307 23.17428567 50.21095307 50.21095238V600.29333511c27.03666671 0 50.21095307 23.17428567 50.21095237 50.21095239V654.36666855c81.11000083-27.03666671 142.90809638-92.69714333 173.80714417-173.80714418H782.36666855c-27.03666671 0-50.21095307-23.17428567-50.21095238-50.21095237S751.46762077 384 778.5042875 384c7.72476211 0 15.44952425 3.86238105 19.31190529 3.86238105V384c0-131.32095321-92.69714333-243.33000185-212.43095407-278.09143067z"  horiz-adv-x="1024" />

    
    <glyph glyph-name="apple" unicode="&#58900;" d="M799.914667 250.06933300000003c-16-35.541333-23.68-51.413333-44.288-82.773333-28.8-43.818667-69.418667-98.56-119.637334-98.901333-44.714667-0.426667-56.234667 29.141333-116.906666 28.629333-60.672-0.298667-73.301333-29.226667-118.058667-28.757333-50.261333 0.469333-88.661333 49.749333-117.504 93.525333-80.554667 122.709333-89.088 266.581333-39.253333 343.125333 35.2 54.272 90.88 86.144 143.274666 86.144 53.333333 0 86.826667-29.269333 130.901334-29.269333 42.752 0 68.778667 29.312 130.474666 29.312 46.592 0 95.872-25.386667 131.114667-69.205333-115.2-63.189333-96.512-227.754667 19.882667-271.786667z m-197.845334 390.016c22.442667 28.842667 39.466667 69.461333 33.28 110.848-36.565333-2.474667-79.36-25.856-104.362666-56.106666-22.613333-27.605333-41.429333-68.522667-34.133334-108.117334 39.936-1.28 81.28 22.528 105.216 53.376z"  horiz-adv-x="1024" />

    
    <glyph glyph-name="android" unicode="&#58899;" d="M845.610667 609.194667a27.690667 27.690667 0 0 1 0 38.357333 26.154667 26.154667 0 0 1-37.461334 0L733.696 571.3066670000001l0.64-0.768A323.541333 323.541333 0 0 1 508.074667 661.333333a324.266667 324.266667 0 0 1-221.653334-86.229333l0.085334 0.085333L215.893333 647.552a26.154667 26.154667 0 0 1-37.461333 0 27.690667 27.690667 0 0 1 0-38.4l72.234667-73.941333 0.64 0.682666a279.808 279.808 0 0 1-57.429334-168.96v-260.266666H822.186667v260.309333a279.338667 279.338667 0 0 1-53.461334 163.712l0.128-0.128 76.757334 78.634667zM379.861333 396.8a43.52 43.52 0 0 0-43.050666 44.032c0 24.32 19.285333 44.074667 43.050666 44.074667a43.52 43.52 0 0 0 43.008-44.074667 43.52 43.52 0 0 0-43.008-44.032z m256.298667 0a43.52 43.52 0 0 0-43.008 44.032c0 24.32 19.242667 44.074667 43.008 44.074667a43.52 43.52 0 0 0 43.008-44.074667 43.52 43.52 0 0 0-43.008-44.032z"  horiz-adv-x="1024" />

    
    <glyph glyph-name="download" unicode="&#58898;" d="M512 725.333333c-187.733333 0-341.333333-153.6-341.333333-341.333333s153.6-341.333333 341.333333-341.333333 341.333333 153.6 341.333333 341.333333-153.6 341.333333-341.333333 341.333333z m0-614.4c-149.333333 0-273.066667 123.733333-273.066667 273.066667S362.666667 657.066667 512 657.066667s273.066667-123.733333 273.066667-273.066667-123.733333-273.066667-273.066667-273.066667zM657.066667 388.266667c-8.533333 8.533333-21.333333 8.533333-29.866667 0l-85.333333-85.333334V554.666667c0 12.8-8.533333 21.333333-21.333334 21.333333h-17.066666c-12.8 0-21.333333-8.533333-21.333334-21.333333v-247.466667l-85.333333 85.333333c-8.533333 8.533333-21.333333 8.533333-29.866667 0l-12.8-12.8c-8.533333-8.533333-8.533333-21.333333 0-29.866666l140.8-140.8c8.533333-8.533333 21.333333-8.533333 29.866667 0l140.8 140.8c8.533333 8.533333 8.533333 21.333333 0 29.866666l-8.533333 8.533334z"  horiz-adv-x="1024" />

    
    <glyph glyph-name="pic" unicode="&#58896;" d="M768 712.533333H256c-38.4 0-72.533333-34.133333-72.533333-72.533333v-512c0-38.4 34.133333-72.533333 72.533333-72.533333h512c38.4 0 72.533333 34.133333 72.533333 72.533333V640c0 38.4-34.133333 72.533333-72.533333 72.533333zM256 652.8h512c8.533333 0 12.8-4.266667 12.8-12.8v-452.266667l-170.666667 183.466667c-8.533333 8.533333-21.333333 12.8-34.133333 12.8-12.8 0-25.6-4.266667-34.133333-12.8l-119.466667-119.466667-29.866667 34.133334c-8.533333 8.533333-21.333333 12.8-34.133333 12.8-12.8 0-25.6-4.266667-34.133333-12.8l-81.066667-81.066667V640c0 8.533333 4.266667 12.8 12.8 12.8z m512-537.6h-221.866667l-85.333333 89.6 110.933333 110.933333 196.266667-200.533333z m-520.533333 4.266667l110.933333 115.2 106.666667-119.466667H256c-4.266667 0-8.533333 0-8.533333 4.266667zM661.333333 554.666667m-42.666666 0a42.666667 42.666667 0 1 1 85.333333 0 42.666667 42.666667 0 1 1-85.333333 0Z"  horiz-adv-x="1024" />

    
    <glyph glyph-name="mall" unicode="&#58897;" d="M768 746.666667H256c-25.6 0-42.666667-17.066667-42.666667-42.666667v-640c0-25.6 17.066667-42.666667 42.666667-42.666667h512c25.6 0 42.666667 17.066667 42.666667 42.666667v640c0 25.6-17.066667 42.666667-42.666667 42.666667z m-25.6-657.066667H281.6V678.4h460.8v-588.8zM512 396.8c85.333333 0 157.866667 72.533333 157.866667 157.866667 0 17.066667-12.8 29.866667-29.866667 29.866666s-29.866667-12.8-29.866667-29.866666c0-55.466667-42.666667-98.133333-98.133333-98.133334-55.466667 0-98.133333 42.666667-98.133333 98.133334 0 17.066667-12.8 29.866667-29.866667 29.866666s-29.866667-12.8-29.866667-29.866666c0-85.333333 72.533333-157.866667 157.866667-157.866667z"  horiz-adv-x="1024" />

    
    <glyph glyph-name="tron" unicode="&#58895;" d="M305.578667 478.592c2.816-2.56 7.082667-2.56 10.24-0.725333a326.784 326.784 0 0 0 175.829333 51.413333c2.858667 0 5.333333 0 8.192-0.426667V652.032c0 5.546667-4.608 9.984-9.6 9.258667-94.805333-10.368-179.370667-54.357333-243.285333-120.149334a9.813333 9.813333 0 0 1 0.725333-13.653333l57.898667-48.853333zM250.538667 438.314667L207.189333 475.306667a8.96 8.96 0 0 1-13.141333-1.877334A430.08 430.08 0 0 1 128 243.11466700000005c0-37.376 4.266667-73.6 13.482667-107.946667 5.717333-20.352 15.274667-14.08 12.8 0.725333-2.133333 12.928-2.133333 26.24-2.133334 39.936 0 97.237333 37.632 185.173333 98.730667 249.173334a9.045333 9.045333 0 0 1-0.341333 13.312zM564.48 651.989333v-123.861333c0-4.437333 2.858667-7.765333 6.784-8.874667a338.133333 338.133333 0 0 0 175.786667-110.933333 9.045333 9.045333 0 0 1 11.008-2.176l104.789333 60.245333a9.557333 9.557333 0 0 1 3.2 13.312c-65.365333 99.456-170.496 168.234667-291.968 181.546667a8.96 8.96 0 0 1-9.6-9.258667zM578.346667 365.866667c14.506667 33.621333 18.090667 45.44 15.232 47.317333-2.816 1.450667-11.008-7.424-31.573334-37.376 0 0-146.005333-185.173333-153.429333-198.528-9.6-17.365333-4.266667-53.973333 16.64-65.450667 4.992-2.56 11.392-5.162667 17.450667-5.162666 19.882667 0 40.106667 8.533333 47.232 21.461333 7.466667 13.312 88.448 237.738667 88.448 237.738667z"  horiz-adv-x="1024" />

    
    <glyph glyph-name="matrix" unicode="&#58893;" d="M291.55577578 614.25072745l24.57686972-12.28843449a37.1974243 37.1974243 0 0 1 34.20834553 0.53139145l148.98896858 79.70876596 0.53139144 0.3321201a33.01271388 33.01271388 0 0 0 31.21926676-0.19927206l149.71963282-79.44306988a36.93172822 36.93172822 0 0 1 35.8689446 0.53139144l18.7315602 10.62783542a21.25567083 21.25567083 0 0 1-0.53139216 37.1974243L564.75757189 742.18329727A103.75424423 103.75424423 0 0 1 467.18075728 742.84753675L291.35650372 652.17881527a21.25567083 21.25567083 0 0 1 0.19927206-37.92808782zM701.79022537 176.64960143999997L550.60926553 95.47950773000002a74.726968 74.726968 0 0 0-69.41304992-0.59781617l-159.41753266 82.43214937a21.25567083 21.25567083 0 0 1-31.08641872-18.86440823v-15.0118172a37.13100029 37.13100029 0 0 1 19.39579968-32.54774647l156.22918182-85.08910804a103.95351557 103.95351557 0 0 1 99.10456566 0l148.85612126 84.889836a37.39669638 37.39669638 0 0 1 18.79798349 32.41489841v14.87896987a21.18924682 21.18924682 0 0 1-31.28569077 18.66513617zM841.81195834 573.4664089a26.83528425 26.83528425 0 0 1-26.83528499 0.26569536L545.42819623 423.21538463a69.34662663 69.34662663 0 0 0-66.88894003 0L208.99077908 573.73210426A27.03455632 27.03455632 0 0 1 168.80427599 550.15159487v-259.45203387a26.70243694 26.70243694 0 0 1 14.41400173-23.91263024l47.89168374-25.2411092a18.99725628 18.99725628 0 0 1 8.90081232-2.19199125 19.13010361 19.13010361 0 0 1 19.06367957 19.06368031V377.64853946000005a23.04911795 23.04911795 0 0 0 11.62419502 19.92719186 23.77978219 23.77978219 0 0 0 23.51408609 0.66423947 17670.10498009 17670.10498009 0 0 1 175.35928541-93.39210418 90.66872148 90.66872148 0 0 1 84.82341197 0.19927208l177.94982079 94.98627994a22.11918238 22.11918238 0 0 0 32.54774646-19.46222441v-122.22010763a19.06367957 19.06367957 0 0 1 27.96449189-16.80526503l47.82525972 25.2411092a26.96813229 26.96813229 0 0 1 14.48042574 23.91263024V550.15159487a26.76886095 26.76886095 0 0 1-13.28479408 23.24839z"  horiz-adv-x="1024" />

    
    <glyph glyph-name="logo-simple" unicode="&#58894;" d="M511.97946902 731.61428833a347.59375735 347.59375735 0 1 1 347.65893505-347.59375735A347.59375735 347.59375735 0 0 1 511.97946902 731.61428833z m172.0044864-223.23431798a15.51234126 15.51234126 0 0 0-12.84004689-13.42664805l-63.87434546-10.75435439V324.90417305999995a61.4627625 61.4627625 0 0 1 6.77850239-27.89614237l39.9540544-76.71439236a13.29629201 13.29629201 0 0 0-11.86237832-19.22748119h-33.95768758a13.03558062 13.03558062 0 0 0-11.927556 6.97403544l-39.75852137 74.69387683a60.81098367 60.81098367 0 0 0-7.16956914 28.67827724V474.42228277l-89.61961695-14.99091778v-220.95309174a21.63906413 21.63906413 0 0 0-9.64632975-17.79356749L425.09732412 204.58576403999996a15.6426966 15.6426966 0 0 0-24.18100178 13.03558064v232.03333451l-65.43861517-10.94988742a15.51234126 15.51234126 0 0 0-17.85874516 17.27214401l3.45442852 27.96132073a15.51234126 15.51234126 0 0 0 12.90522526 13.42664806l335.4054893 56.24853052a15.51234126 15.51234126 0 0 0 18.05427887-17.2721447z"  horiz-adv-x="1024" />

    
    <glyph glyph-name="info" unicode="&#58888;" d="M512 725.333333c-187.733333 0-341.333333-153.6-341.333333-341.333333s153.6-341.333333 341.333333-341.333333 341.333333 153.6 341.333333 341.333333-153.6 341.333333-341.333333 341.333333z m42.666667-490.666666c0-25.6-17.066667-42.666667-42.666667-42.666667s-42.666667 17.066667-42.666667 42.666667v170.666666c0 25.6 17.066667 42.666667 42.666667 42.666667s42.666667-17.066667 42.666667-42.666667v-170.666666z m-42.666667 256c-25.6 0-42.666667 17.066667-42.666667 42.666666s17.066667 42.666667 42.666667 42.666667 42.666667-17.066667 42.666667-42.666667-17.066667-42.666667-42.666667-42.666666z"  horiz-adv-x="1024" />

    
    <glyph glyph-name="success" unicode="&#58890;" d="M512 725.333333c-187.733333 0-341.333333-153.6-341.333333-341.333333s153.6-341.333333 341.333333-341.333333 341.333333 153.6 341.333333 341.333333-153.6 341.333333-341.333333 341.333333z m174.933333-247.466666L512 268.79999999999995c-17.066667-17.066667-42.666667-21.333333-59.733333-4.266667L341.333333 362.66666699999996c-8.533333 4.266667-8.533333 17.066667 0 25.6l21.333334 25.6c4.266667 8.533333 17.066667 8.533333 25.6 0l76.8-68.266667c8.533333-8.533333 17.066667-4.266667 25.6 0l145.066666 174.933333c4.266667 8.533333 17.066667 8.533333 25.6 4.266667l21.333334-21.333333c8.533333-8.533333 8.533333-17.066667 4.266666-25.6z"  horiz-adv-x="1024" />

    
    <glyph glyph-name="close" unicode="&#58891;" d="M558.08 384L819.2 645.12c10.24 10.24 10.24 20.48 0 30.72l-15.36 15.36c-10.24 10.24-20.48 10.24-30.72 0L512 430.08 250.88 691.2c-5.12 10.24-20.48 10.24-30.72 0l-15.36-15.36c-10.24-10.24-10.24-25.6 0-30.72L465.92 384 204.8 122.88c-10.24-10.24-10.24-20.48 0-30.72l15.36-15.36c10.24-10.24 20.48-10.24 30.72 0l261.12 261.12 261.12-261.12c10.24-10.24 20.48-10.24 30.72 0l20.48 20.48c10.24 10.24 10.24 20.48 0 30.72l-266.24 256z"  horiz-adv-x="1024" />

    
    <glyph glyph-name="clock" unicode="&#58892;" d="M512 42.66666699999996c-187.733333 0-341.333333 153.6-341.333333 341.333333s153.6 341.333333 341.333333 341.333333 341.333333-153.6 341.333333-341.333333-153.6-341.333333-341.333333-341.333333z m0 614.4c-149.333333 0-273.066667-123.733333-273.066667-273.066667s123.733333-273.066667 273.066667-273.066667 273.066667 123.733333 273.066667 273.066667-123.733333 273.066667-273.066667 273.066667zM524.8 567.4666669999999c12.8 0 21.333333-8.533333 21.333333-21.333334v-140.8c0-4.266667 4.266667-12.8 4.266667-17.066666l98.133333-98.133334c8.533333-8.533333 8.533333-21.333333 0-29.866666l-17.066666-17.066667c-8.533333-8.533333-21.333333-8.533333-29.866667 0l-119.466667 119.466667c-4.266667 4.266667-4.266667 8.533333-4.266666 17.066666V546.133333c0 12.8 8.533333 21.333333 21.333333 21.333334h25.6z"  horiz-adv-x="1024" />

    
    <glyph glyph-name="wechat-simple" unicode="&#58885;" d="M840.277333 362.24c-17.322667 40.149333-50.005333 72.106667-87.936 91.733333a236.970667 236.970667 0 0 1-217.002666-0.853333c-46.378667-24.362667-85.12-68.096-96.128-121.258667-9.045333-39.125333-0.938667-81.28 19.370666-115.370666 30.165333-51.328 84.736-84.096 141.397334-94.634667 41.045333-8.533333 83.498667-3.456 123.349333 8.32 23.978667-9.514667 45.312-24.874667 68.522667-36.309333-5.973333 20.608-12.373333 40.96-19.2 61.226666 26.026667 18.944 49.621333 42.581333 63.786666 72.234667a160.042667 160.042667 0 0 1 3.84 134.869333z m-282.282666 275.712c-70.954667 40.917333-159.317333 47.061333-235.690667 18.773333-50.176-18.474667-95.573333-52.864-123.605333-99.584-25.429333-42.24-34.986667-94.933333-22.698667-143.274666 12.288-53.589333 48.64-98.56 92.757333-128.554667-8.533333-24.746667-16.64-49.493333-24.32-74.410667 27.733333 14.848 55.466667 30.378667 83.2 45.482667 33.28-10.965333 68.693333-16.298667 104.106667-15.104a183.509333 183.509333 0 0 0-7.253333 85.973333c6.4 39.936 27.733333 76.458667 56.746666 103.509334 49.066667 47.061333 118.613333 66.901333 184.746667 62.08-12.373333 62.208-55.04 114.773333-108.757333 145.066666h0.768v0.042667z m49.28-290.986667c-5.930667-18.986667-32.853333-24.704-45.909334-10.24-14.378667 13.354667-8.789333 41.301333 10.112 47.274667 20.864 9.002667 44.970667-15.658667 35.84-37.034667z m136.405333-2.688c-7.253333-17.066667-32.426667-21.077333-44.8-7.850666-5.973333 5.546667-7.68 13.952-9.813333 21.248 2.986667 13.354667 11.946667 27.178667 26.453333 27.818666 20.053333 2.858667 37.973333-22.485333 27.733333-41.216h0.426667z m-203.52 188.032c0.256-27.989333-36.266667-45.482667-56.746667-26.453333-21.248 15.530667-15.189333 53.461333 9.728 61.312 22.357333 9.173333 48.725333-10.026667 46.933334-34.517333l0.085333-0.341334z m-172.330667-7.125333c-4.906667-24.32-36.693333-36.053333-55.338666-19.754667-21.589333 15.616-15.530667 54.229333 9.813333 62.08 24.832 9.813333 53.034667-16 45.525333-42.325333z"  horiz-adv-x="1024" />

    
    <glyph glyph-name="weibo-simple" unicode="&#58886;" d="M657.92 682.325333a173.952 173.952 0 0 1-23.466667-3.2 26.197333 26.197333 0 0 1 10.666667-51.2 129.28 129.28 0 0 0 122.581333-39.424c31.872-35.328 40.234667-83.584 26.666667-125.824a26.453333 26.453333 0 0 1 17.066667-33.024 26.496 26.496 0 0 1 33.024 17.066667 178.901333 178.901333 0 0 1-37.333334 175.872 182.698667 182.698667 0 0 1-126.848 59.733333 179.285333 179.285333 0 0 1-22.4 0z m-212.181333-77.824c-47.573333-5.077333-114.773333-42.24-173.781334-101.290666C207.573333 438.826667 170.666667 370.346667 170.666667 311.29600000000005c0-112.853333 144.213333-181.248 285.738666-181.248 185.514667 0 309.162667 108.501333 309.162667 194.048 0 51.712-42.922667 80.64-82.090667 92.757333-9.6 2.944-16.810667 4.394667-11.733333 17.066667 10.922667 27.434667 12.928 51.285333 1.066667 68.224-22.101333 31.701333-84.053333 30.122667-153.514667 1.066667 0 0-21.589333-9.856-16 7.466666 10.666667 34.389333 9.216 63.274667-7.466667 79.957334-11.733333 11.861333-28.501333 16.128-50.090666 13.866666z m230.272-13.866666c-7.594667 0.426667-14.933333-0.554667-22.4-2.133334-12.117333-2.56-19.712-15.616-17.066667-27.733333 2.688-12.117333 14.549333-19.712 26.666667-17.066667 14.506667 3.072 30.933333-0.896 41.6-12.8 10.666667-11.818667 13.184-27.434667 8.533333-41.557333a22.613333 22.613333 0 0 1 13.866667-28.8c11.818667-3.712 25.045333 2.005333 28.757333 13.866667a88.32 88.32 0 0 1-18.133333 86.357333 90.24 90.24 0 0 1-61.824 29.866667z m-204.672-150.314667c94.464-3.370667 170.538667-50.261333 176.938666-115.157333 7.338667-74.24-77.824-143.36-190.805333-154.581334-113.024-11.221333-211.242667 39.978667-218.581333 114.048-7.338667 74.24 79.018667 143.402667 191.914666 154.624 14.122667 1.28 27.050667 1.578667 40.533334 1.066667z m-64-71.466667c-38.656-3.413333-75.136-25.6-91.690667-57.557333-22.528-43.562667-0.256-91.818667 51.2-107.690667 53.162667-16.384 115.626667 8.405333 137.514667 55.466667 21.461333 45.952-5.973333 93.696-58.624 106.581333-12.672 3.2-25.472 4.437333-38.4 3.2z m-24.490667-70.357333a38.485333 38.485333 0 0 0 12.8-3.2c16.64-6.784 21.845333-24.618667 11.690667-40.533333-10.368-15.701333-32.384-23.296-49.066667-15.957334-16.341333 7.210667-21.034667 25.173333-10.666667 40.533334 7.765333 11.434667 21.76 19.285333 35.242667 19.2z"  horiz-adv-x="1024" />

    
    <glyph glyph-name="twitter-simple" unicode="&#58887;" d="M853.333333 595.669333a278.741333 278.741333 0 0 0-80.426666-22.058666 140.288 140.288 0 0 1 61.568 77.482666 280.405333 280.405333 0 0 0-88.917334-34.005333A140.032 140.032 0 0 1 506.88 489.386667 397.653333 397.653333 0 0 0 218.154667 635.733333a139.946667 139.946667 0 0 1 43.349333-186.965333 139.690667 139.690667 0 0 0-63.445333 17.493333v-1.749333a140.16 140.16 0 0 1 112.341333-137.301333 140.8 140.8 0 0 0-63.274667-2.389334 140.202667 140.202667 0 0 1 130.858667-97.28A281.002667 281.002667 0 0 0 170.666667 169.64266699999996 396.373333 396.373333 0 0 1 385.365333 106.66666699999996c257.621333 0 398.506667 213.333333 398.506667 398.421333 0 6.058667-0.128 12.117333-0.426667 18.133333A283.605333 283.605333 0 0 1 853.333333 595.626667z"  horiz-adv-x="1024" />

    
    <glyph glyph-name="rss-simple" unicode="&#58889;" d="M256.085333 387.882667a257.28 257.28 0 0 0 183.296-75.946667 258.133333 258.133333 0 0 0 76.032-183.808h106.709334c0 201.856-164.181333 366.08-366.037334 366.08v-106.325333z m0.170667 188.458666c246.826667 0 447.658667-201.130667 447.658667-448.341333H810.666667c0 305.877333-248.746667 554.666667-554.410667 554.666667v-106.325334z m147.626667-374.058666a73.813333 73.813333 0 0 0-73.941334-73.642667A73.813333 73.813333 0 0 0 256 202.24c0 40.661333 33.109333 73.6 73.898667 73.6a73.813333 73.813333 0 0 0 73.941333-73.6z"  horiz-adv-x="1024" />

    
    <glyph glyph-name="like" unicode="&#58880;" d="M367.8208 699.06432a18.26816 18.26816 0 0 0 18.0224 15.23712h304.3328c13.1072 0 21.9136-13.312 16.87552-25.3952L628.3264 501.47328h132.096c15.40096 0 23.87968-17.8176 14.21312-29.77792l-343.81824-425.28768c-11.8784-14.7456-35.6352-3.85024-32.19456 14.78656l49.64352 270.41792a7.33184 7.33184 0 0 1-7.20896 8.6016h-112.2304a18.26816 18.26816 0 0 0-18.0224 21.34016l57.01632 337.5104z m67.46112-43.25376a18.26816 18.26816 0 0 1-18.0224-15.23712l-39.40352-233.34912a7.33184 7.33184 0 0 1 7.20896-8.51968h113.0496c11.71456 0 20.39808-10.89536 17.77664-22.3232l-42.51648-187.1872c-0.86016-3.76832 4.01408-6.144 6.43072-3.03104l200.86784 256.8192h-112.8448a18.26816 18.26816 0 0 0-16.83456 25.31328l74.46528 177.3568a7.29088 7.29088 0 0 1-6.7584 10.15808h-183.41888z"  horiz-adv-x="1024" />

    
    <glyph glyph-name="write" unicode="&#58881;" d="M698.368 692.992a30.72 30.72 0 0 0 43.264 0.1024l79.2576-78.1312a30.72 30.72 0 0 0 0.3072-43.4176L735.2832 484.352l-123.0848 123.0336 86.2208 85.6064z m-134.6048-133.6832l-359.168-356.6592a42.7008 42.7008 0 0 1-12.5952-30.2592v-83.2a25.6 25.6 0 0 1 25.6-25.6h84.992c11.4176 0 22.3232 4.608 30.3616 12.6976l354.4064 359.424-123.5968 123.5968z"  horiz-adv-x="1024" />

    
    <glyph glyph-name="more" unicode="&#58882;" d="M245.76 384m-61.44 0a61.44 61.44 0 1 1 122.88 0 61.44 61.44 0 1 1-122.88 0ZM512 384m-61.44 0a61.44 61.44 0 1 1 122.88 0 61.44 61.44 0 1 1-122.88 0ZM778.24 384m-61.44 0a61.44 61.44 0 1 1 122.88 0 61.44 61.44 0 1 1-122.88 0Z"  horiz-adv-x="1024" />

    
    <glyph glyph-name="view" unicode="&#58883;" d="M815.104 457.728c-16.384 28.672-40.96 57.344-65.536 81.92-65.536 61.44-151.552 94.208-237.568 94.208-81.92 0-163.84-32.768-233.472-94.208-28.672-28.672-53.248-53.248-69.632-81.92-16.384-28.672-24.576-53.248-24.576-73.728 0-16.384 8.192-40.96 24.576-69.632 16.384-28.672 40.96-57.344 69.632-81.92C348.16 171.00800000000004 430.08 138.24 512 138.24s163.84 32.768 233.472 90.112c28.672 24.576 53.248 53.248 69.632 81.92 16.384 28.672 24.576 53.248 24.576 73.728s-8.192 45.056-24.576 73.728z m-65.536-106.496c-12.288-20.48-32.768-45.056-53.248-61.44-32.768-28.672-98.304-73.728-184.32-73.728s-151.552 49.152-184.32 77.824c-20.48 20.48-40.96 45.056-57.344 65.536-12.288 16.384-12.288 28.672-12.288 28.672s0 12.288 16.384 32.768c12.288 20.48 32.768 45.056 53.248 61.44 32.768 28.672 98.304 73.728 184.32 73.728 90.112 0 155.648-45.056 188.416-73.728 28.672-24.576 45.056-49.152 53.248-61.44 12.288-20.48 12.288-32.768 12.288-36.864 0 0 0-12.288-16.384-32.768zM512 384m-81.92 0a81.92 81.92 0 1 1 163.84 0 81.92 81.92 0 1 1-163.84 0Z"  horiz-adv-x="1024" />

    
    <glyph glyph-name="post" unicode="&#58884;" d="M379.733333 384h264.533334c12.8 0 21.333333 8.533333 21.333333 21.333333s-8.533333 21.333333-21.333333 21.333334H379.733333c-12.8 0-21.333333-8.533333-21.333333-21.333334s8.533333-21.333333 21.333333-21.333333zM379.733333 281.6h264.533334c12.8 0 21.333333 8.533333 21.333333 21.333333s-8.533333 21.333333-21.333333 21.333334H379.733333c-12.8 0-21.333333-8.533333-21.333333-21.333334s8.533333-21.333333 21.333333-21.333333zM375.466667 486.4h273.066666c8.533333 0 17.066667 8.533333 17.066667 17.066667v119.466666c0 8.533333-8.533333 17.066667-17.066667 17.066667H375.466667c-8.533333 0-17.066667-8.533333-17.066667-17.066667v-119.466666c0-8.533333 8.533333-17.066667 17.066667-17.066667zM772.266667 768H251.733333c-27.733333 0-51.2-23.466667-51.2-51.2v-665.6c0-27.733333 23.466667-51.2 51.2-51.2h520.533334c27.733333 0 51.2 23.466667 51.2 51.2V716.8c0 27.733333-23.466667 51.2-51.2 51.2z m-17.066667-699.733333H268.8V699.733333h486.4v-631.466666z"  horiz-adv-x="1024" />

    


  </font>
</defs>
</svg>
